<svg xmlns="http://www.w3.org/2000/svg" data-name="Layer 1" width="74" height="61" style="">
    <rect id="backgroundrect" width="100%" height="100%" x="0" y="0" fill="none" stroke="none"/>
    <defs>
        <style>.cls-1{fill:#ff8000;}</style>
    </defs>
    <title>icon for 4 sisters</title>
    <g class="currentLayer" style="">
        <title>Layer 1</title>
        <rect class="cls-1" x="0" y="58.77870178222656" width="73.51000213623047" height="2" id="svg_1"/>
        <polygon class="cls-1"
                 points="44.25999450683594,55.12870788574219 39.52000427246094,55.12870788574219 39.52000427246094,12.2886962890625 44.25999450683594,9.2987060546875 44.25999450683594,55.12870788574219 "
                 id="svg_2"/>
        <polygon class="cls-1"
                 points="38.220001220703125,55.12870788574219 37.55999755859375,55.12870788574219 37.55999755859375,13.418701171875 38.220001220703125,13.058700561523438 38.220001220703125,55.12870788574219 "
                 id="svg_3"/>
        <path class="cls-1"
              d="M48.150000000000006,54.788701171875005 h-1 V0.918701171875 L26.75,13.668701171875 a1.36,1.36 0 0 0 -0.6500000000000001,1.1600000000000001 v40 h-1 v-40 a2.36,2.36 0 0 1 1.12,-2 l20.42,-12.71 a1,1 0 0 1 1.47,0.81 z"
              id="svg_4"/>
        <path class="cls-1"
              d="M11.150000000000006,55.788701171875005 h-1 V28.858701171874998 a2.38,2.38 0 0 1 1.18,-2 L25.400000000000006,18.668701171875 l0.5,0.8600000000000001 L11.830000000000013,27.668701171875 a1.3800000000000001,1.3800000000000001 0 0 0 -0.6800000000000002,1.19 z"
              id="svg_5"/>
        <path class="cls-1"
              d="M63.150000000000006,55.788701171875005 h-1 V28.858701171874998 a1.3800000000000001,1.3800000000000001 0 0 0 -0.6800000000000002,-1.19 l-14.07,-8.18 l0.5,-0.8600000000000001 l14.07,8.18 a2.38,2.38 0 0 1 1.18,2 z"
              id="svg_6"/>
    </g>
</svg>