<svg xmlns="http://www.w3.org/2000/svg" data-name="Layer 1" width="49" height="63">
    <rect id="backgroundrect" width="100%" height="100%" x="0" y="0" fill="none" stroke="none"/>
    <defs>
        <style>.cls-1{fill:#ff8000;}</style>
    </defs>
    <title>icon for 4 sisters</title>
    <g class="currentLayer" style="">
        <title>Layer 1</title>
        <path class="cls-1"
              d="M36.150000000000006,37.049998779296885 l-0.2,-0.06000000000000001 c-13.76,-4.37 -22.72,-0.28 -23.1,-0.11000000000000001 l-0.18000000000000002,0.08000000000000002 l-0.13,-0.15000000000000002 l-1.15,-1.3900000000000001 l0.29000000000000004,-0.14 c0.42000000000000004,-0.2 10.33,-4.74 25.11,0 l0.29000000000000004,0.09000000000000002 zm-12.58,-2.5700000000000003 a41.26,41.26 0 0 1 12.34,2 l0.46,-0.8300000000000001 c-13.22,-4.11 -22.4,-0.7600000000000001 -24.16,0 l0.6100000000000001,0.7500000000000001 A28.2,28.2 0 0 1 23.560000000000002,34.479998779296864 z"
              id="svg_1"/>
        <path class="cls-1"
              d="M28.889999999999986,60.58999877929688 H20.5 V50.499998779296874 h8.43 zm-7.43,-1 h6.43 v-8.08 H21.5 z"
              id="svg_2"/>
        <path class="cls-1"
              d="M24.669999999999987,51.999998779296874 c-13.6,0 -24.67,-11.67 -24.67,-26 s11.07,-26 24.67,-26 s24.67,11.67 24.67,26 S38.28,51.999998779296874 24.669999999999987,51.999998779296874 zm0,-50 c-12.5,0 -22.67,10.77 -22.67,24 s10.17,24 22.67,24 s22.67,-10.77 22.67,-24 S37.16999999999999,1.9799987792968636 24.669999999999987,1.9799987792968636 z"
              id="svg_3"/>
        <path class="cls-1"
              d="M38.41999999999999,63.31999877929687 a39.48,39.48 0 0 0 -27.48,0 l-0.54,-1.4 a41,41 0 0 1 28.58,0 z"
              id="svg_4"/>
        <path class="cls-1"
              d="M24.430000000000007,42.14999877929688 c-9.65,0 -17.51,-8.41 -17.51,-18.74 s7.85,-18.74 17.51,-18.74 s17.51,8.41 17.51,18.74 S34.08000000000001,42.14999877929688 24.430000000000007,42.14999877929688 zm0,-36.47 c-9.1,0 -16.51,8 -16.51,17.74 s7.4,17.74 16.51,17.74 s16.51,-8 16.51,-17.74 S33.5,5.669998779296861 24.430000000000007,5.669998779296861 z"
              id="svg_5"/>
    </g>
</svg>