<svg xmlns="http://www.w3.org/2000/svg" data-name="Layer 1" width="76" height="55.33333333333334">
    <rect id="backgroundrect" width="100%" height="100%" x="0" y="0" fill="none" stroke="none" class="" style=""/>
    <defs>
        <style>.cls-1{fill:#ff8000;}</style>
    </defs>
    <title>icon for 4 sisters</title>
    <g class="currentLayer" style="">
        <title>Layer 1</title>
        <path class="cls-1"
              d="M67.53590167045593,54.59923094511032 H14.405901670455933 l0,-1.87 a15.53,15.53 0 0 0 -1.44,-7.34 a15.23,15.23 0 0 0 -4.29,-5.32 c-2.88,-2.29 -4.12,-4.36 -3.71,-6.16 a3.33,3.33 0 0 1 2.6900000000000004,-2.41 a7.27,7.27 0 0 1 6.37,1.77 c2.26,2 4,5.88 5.19,11.53 l0.25,0.8300000000000006 h43.84 a17.62,17.62 0 0 1 5,-8.33 c1.82,-1.61 3.75,-2.16 5.29,-1.5 a2.46,2.46 0 0 1 1.51,1.9 c0.19000000000000017,1.34 -0.7200000000000006,2.8600000000000003 -2.71,4.52 a12.91,12.91 0 0 0 -4.46,8.85 a14.46,14.46 0 0 1 -0.27,2 zM16.405901670455933,52.59923094511032 h49.36 a14.16,14.16 0 0 0 0.21000000000000016,-1.6600000000000001 a15,15 0 0 1 5.18,-10.25 c2,-1.6900000000000008 2,-2.54 2,-2.6900000000000004 a0.4900000000000003,0.4900000000000003 0 0 0 -0.3200000000000004,-0.34000000000000047 c-1.17,-0.5 -2.73,0.7600000000000008 -3.18,1.1600000000000001 a15.72,15.72 0 0 0 -4.6,8 l-0.17,0.79 H17.995901670455936 l-0.690000000000001,-2.35 c-1.1,-5.23 -2.67,-8.84 -4.58,-10.52 a5.27,5.27 0 0 0 -4.6,-1.32 a1.46,1.46 0 0 0 -1.18,0.9 c-0.08000000000000008,0.3500000000000003 -0.1,1.6800000000000006 3,4.15 a17.21,17.21 0 0 1 4.84,6 A17.47,17.47 0 0 1 16.405901670455933,52.59923094511032 z"
              id="svg_1"/>
        <path class="cls-1"
              d="M61.87590167045593,44.449230945110315 H20.405901670455933 l0,-0.22000000000000017 c-1.4100000000000001,-12.93 -10.32,-13.9 -10.41,-13.91 l-0.55,-0.05000000000000006 l0.4,-0.38000000000000034 c4.8,-4.52 15.2,-4.13 30.9,1.17 a33.9,33.9 0 0 0 10.15,1.77 c13.1,0.27 19.89,0.7500000000000007 20.2,1.42 l0.06000000000000006,0.14 l-0.15000000000000016,0.2 l-0.07,0 c-6.13,1.79 -8.74,9.58 -8.77,9.66 l-0.06000000000000006,0.17 zm-41.05,-0.5 h40.88 c0.4100000000000003,-1.17 2.91,-7.57 8.39,-9.6 c-1.28,-0.26 -5.48,-0.7400000000000007 -19.26,-1 a34.42,34.42 0 0 1 -10.29,-1.8 c-15.1,-5.09 -25.2,-5.63 -30,-1.62 C12.515901670455946,30.34923094511032 19.505901670455927,32.65923094511032 20.82590167045592,43.949230945110315 z"
              id="svg_2"/>
        <path class="cls-1"
              d="M68.57590167045592,35.34923094511032 c-1.17,-0.26 -5.16,-0.7300000000000006 -18.82,-1 a32.94,32.94 0 0 1 -9.86,-1.7200000000000002 c-9.88,-3.33 -22.8,-6.39 -28.26,-2.06 l-0.16000000000000023,-0.2 c5.55,-4.4 18.55,-1.33 28.49,2 a32.73,32.73 0 0 0 9.78,1.71 c13.68,0.28 17.69,0.7600000000000008 18.87,1 z"
              id="svg_3"/>
        <rect class="cls-1" x="-41.56410336494446" y="291.3492173552513" width="11.430000305175781" height="1"
              transform="rotate(-79.87999725341797 -186.21409606933597,126.71923065185543) " id="svg_4"/>
        <rect class="cls-1" x="-12.284095048904419" y="32.659237802028656" width="1" height="11.300000190734863"
              transform="rotate(-9.960000038146973 -173.72410583496105,-126.91076660156244) " id="svg_5"/>
        <path class="cls-1"
              d="M13.735901670455945,2.6692309451103142 l-0.8200000000000006,-0.5700000000000006 a0.26,0.26 0 0 0 0,0.15000000000000016 a0.25,0.25 0 0 0 0.05000000000000006,0.16000000000000023 c-0.21000000000000016,-0.21000000000000016 -1.75,-0.6400000000000008 -4.38,-0.6400000000000008 s-4.17,0.4200000000000003 -4.38,0.6400000000000008 a0.25,0.25 0 0 0 0.05000000000000006,-0.16000000000000023 a0.27,0.27 0 0 0 0,-0.15000000000000016 l-0.8200000000000006,0.5700000000000006 a0.7300000000000006,0.7300000000000006 0 0 1 -0.13,-0.4200000000000003 c0,-1.37 4.08,-1.48 5.33,-1.48 s5.33,0.11000000000000008 5.33,1.48 A0.7300000000000006,0.7300000000000006 0 0 1 13.735901670455945,2.6692309451103142 z"
              id="svg_6"/>
        <path class="cls-1"
              d="M8.535901670455928,15.349230945110321 c-2.31,0 -6.41,-0.34000000000000047 -7.14,-1.6 a0.8900000000000008,0.8900000000000008 0 0 1 -0.13,-0.46 h1 c0.21000000000000016,0.3300000000000004 2.34,1.06 6.27,1.06 s6.06,-0.7300000000000006 6.28,-1.1 l1,0 a0.9,0.9 0 0 1 -0.13,0.4700000000000003 C14.945901670455925,15.009230945110318 10.84590167045593,15.349230945110321 8.535901670455928,15.349230945110321 z"
              id="svg_7"/>
        <rect class="cls-1" x="7.675898313522339" y="39.59922498464584" width="1" height="14.680000305175781"
              transform="rotate(-0.10000000149011612 -147.94409179686775,-157.13076782227) " id="svg_8"/>
        <rect class="cls-1" x="-26.004090547561646" y="360.4792222380638" width="18.110000610351562" height="1"
              transform="rotate(-89.88999938964844 -173.07409667968747,179.67921447753903) " id="svg_9"/>
        <rect class="cls-1" x="3.3358943462371826" y="53.50923627614975" width="10.029999732971191" height="1"
              id="svg_10"/>
    </g>
</svg>