<svg xmlns="http://www.w3.org/2000/svg" viewBox="0 0 77.16 18.64">
    <defs>
        <style>.cls-1{fill:#fff;}</style>
    </defs>
    <title>Asset 6</title>
    <g id="Layer_2" data-name="Layer 2">
        <g id="Layer_3" data-name="Layer 3">
            <g id="logo">
                <path id="_4" data-name="4" class="cls-1"
                      d="M11.09,0h.23V7.91h1.37V9H11.32v2.64H10.19V9H4.77Zm-.9,7.91V3.15L6.83,7.91Z"/>
                <g id="Sisters">
                    <path id="s" class="cls-1"
                          d="M24.87,1.79,23.31,3.17A2.21,2.21,0,0,0,21.64,2a1,1,0,0,0-.68.22.66.66,0,0,0-.26.5.82.82,0,0,0,.19.52,13.29,13.29,0,0,0,1.54,1.42c.8.68,1.29,1.1,1.46,1.28A4.4,4.4,0,0,1,24.8,7.2a3.11,3.11,0,0,1,.27,1.29,3,3,0,0,1-.94,2.25,3.46,3.46,0,0,1-2.46.89,3.71,3.71,0,0,1-2.06-.58,4.72,4.72,0,0,1-1.5-1.82l1.77-1.07c.53,1,1.15,1.47,1.84,1.47a1.37,1.37,0,0,0,.91-.32A.92.92,0,0,0,23,8.58a1.23,1.23,0,0,0-.28-.75,8.16,8.16,0,0,0-1.23-1.15,12.49,12.49,0,0,1-2.33-2.27,2.93,2.93,0,0,1-.53-1.6,2.61,2.61,0,0,1,.88-2A3.06,3.06,0,0,1,21.67,0a3.5,3.5,0,0,1,1.58.38A5.9,5.9,0,0,1,24.87,1.79Z"/>
                    <rect id="i" class="cls-1" x="26.96" width="2.09" height="11.63"/>
                    <path id="s-2" data-name="s" class="cls-1"
                          d="M37.38,1.79,35.82,3.17A2.22,2.22,0,0,0,34.15,2a1,1,0,0,0-.68.22.63.63,0,0,0-.26.5.86.86,0,0,0,.18.52,13.76,13.76,0,0,0,1.55,1.42c.8.68,1.29,1.1,1.46,1.28a4.61,4.61,0,0,1,.91,1.23,3.27,3.27,0,0,1,.26,1.29,2.94,2.94,0,0,1-.94,2.25,3.42,3.42,0,0,1-2.45.89,3.71,3.71,0,0,1-2.06-.58,4.72,4.72,0,0,1-1.5-1.82l1.77-1.07c.53,1,1.14,1.47,1.84,1.47a1.37,1.37,0,0,0,.91-.32,1,1,0,0,0,.37-.73,1.29,1.29,0,0,0-.28-.75A8.71,8.71,0,0,0,34,6.68a12.64,12.64,0,0,1-2.34-2.27,2.92,2.92,0,0,1-.52-1.6,2.63,2.63,0,0,1,.87-2A3.1,3.1,0,0,1,34.18,0a3.5,3.5,0,0,1,1.58.38A6,6,0,0,1,37.38,1.79Z"/>
                    <polygon id="t" class="cls-1"
                             points="38.5 0.02 44.7 0.02 44.7 2.12 42.65 2.12 42.65 11.62 40.49 11.62 40.49 2.12 38.5 2.12 38.5 0.02"/>
                    <polygon id="e" class="cls-1"
                             points="46.25 0.01 52.59 0.01 52.59 2.17 48.44 2.17 48.44 4.28 52.59 4.28 52.59 6.4 48.44 6.4 48.44 9.46 52.59 9.46 52.59 11.63 46.25 11.63 46.25 0.01"/>
                    <path id="r" class="cls-1"
                          d="M59,6.47A3.39,3.39,0,0,0,60.68,5.3a3.17,3.17,0,0,0,.55-1.91,3.51,3.51,0,0,0-.5-1.89A2.83,2.83,0,0,0,59.42.36,7.73,7.73,0,0,0,56.68,0H54.34V11.63h2.21V6.71h.2l2.61,4.92h2.42Zm-.34-2.19a2.73,2.73,0,0,1-1.45.28h-.69V2.17h.61a3.71,3.71,0,0,1,1.21.13,1,1,0,0,1,.52.4,1.08,1.08,0,0,1,.2.66A1,1,0,0,1,58.69,4.28Z"/>
                    <path id="s-3" data-name="s" class="cls-1"
                          d="M69.17,1.79,67.61,3.17A2.19,2.19,0,0,0,65.94,2a1,1,0,0,0-.68.22.66.66,0,0,0-.26.5.82.82,0,0,0,.19.52,13.29,13.29,0,0,0,1.54,1.42c.8.68,1.29,1.1,1.46,1.28A4.4,4.4,0,0,1,69.1,7.2a3.11,3.11,0,0,1,.27,1.29,3,3,0,0,1-.94,2.25,3.46,3.46,0,0,1-2.46.89,3.73,3.73,0,0,1-2.06-.58,4.72,4.72,0,0,1-1.5-1.82l1.77-1.07c.53,1,1.15,1.47,1.84,1.47a1.35,1.35,0,0,0,.91-.32.92.92,0,0,0,.37-.73A1.23,1.23,0,0,0,67,7.83a7.67,7.67,0,0,0-1.23-1.15,12.49,12.49,0,0,1-2.33-2.27,2.93,2.93,0,0,1-.53-1.6,2.61,2.61,0,0,1,.88-2A3.06,3.06,0,0,1,66,0a3.5,3.5,0,0,1,1.58.38A5.9,5.9,0,0,1,69.17,1.79Z"/>
                </g>
                <g id="Design">
                    <path id="d" class="cls-1"
                          d="M2.34,14.64v3.12H2.05v-.39a1.31,1.31,0,0,1-.41.34,1.14,1.14,0,0,1-.49.11,1.08,1.08,0,0,1-.81-.35A1.14,1.14,0,0,1,0,16.63a1.12,1.12,0,0,1,.34-.83,1.12,1.12,0,0,1,.82-.35,1.06,1.06,0,0,1,.5.12,1.08,1.08,0,0,1,.39.35V14.64ZM1.18,15.73a.83.83,0,0,0-.44.12.87.87,0,0,0-.33.33,1,1,0,0,0-.12.46.89.89,0,0,0,.12.45.9.9,0,0,0,.33.34.86.86,0,0,0,.44.12.89.89,0,0,0,.45-.12A.82.82,0,0,0,2,17.11a.9.9,0,0,0,.12-.46A.93.93,0,0,0,1.81,16,.86.86,0,0,0,1.18,15.73Z"/>
                    <path id="e-2" data-name="e" class="cls-1"
                          d="M9.5,17l.25.13a1.29,1.29,0,0,1-.28.38,1,1,0,0,1-.35.22,1.25,1.25,0,0,1-.45.08,1.05,1.05,0,0,1-.85-.36,1.22,1.22,0,0,1-.31-.82,1.15,1.15,0,0,1,.26-.76,1.06,1.06,0,0,1,.89-.43,1.1,1.1,0,0,1,.91.44,1.15,1.15,0,0,1,.25.77h-2a.94.94,0,0,0,.25.64.79.79,0,0,0,.6.25A1,1,0,0,0,9,17.49a.85.85,0,0,0,.28-.16A1.14,1.14,0,0,0,9.5,17Zm0-.6A1,1,0,0,0,9.34,16a.86.86,0,0,0-.3-.23,1,1,0,0,0-.38-.08.84.84,0,0,0-.57.21,1,1,0,0,0-.26.47Z"/>
                    <path id="s-4" data-name="s" class="cls-1"
                          d="M16.11,15.75l-.18.2a.7.7,0,0,0-.45-.23.37.37,0,0,0-.25.09.34.34,0,0,0-.1.22.32.32,0,0,0,.09.21,1.06,1.06,0,0,0,.34.24,1.31,1.31,0,0,1,.44.32.6.6,0,0,1,.12.36.65.65,0,0,1-.2.47.69.69,0,0,1-.48.19.78.78,0,0,1-.37-.09.76.76,0,0,1-.3-.23l.19-.21a.6.6,0,0,0,.46.25.4.4,0,0,0,.3-.11.34.34,0,0,0,.12-.26.35.35,0,0,0-.08-.22,1,1,0,0,0-.36-.24A1.29,1.29,0,0,1,15,16.4a.63.63,0,0,1-.11-.35.57.57,0,0,1,.18-.43.62.62,0,0,1,.44-.17A.9.9,0,0,1,16.11,15.75Z"/>
                    <path id="i-2" data-name="i" class="cls-1"
                          d="M21.35,14.58a.24.24,0,0,1,.17.41.26.26,0,0,1-.17.07.24.24,0,0,1-.16-.07.24.24,0,0,1,0-.34A.2.2,0,0,1,21.35,14.58Zm-.14.93h.29v2.25h-.29Z"/>
                    <path id="g" class="cls-1"
                          d="M28.46,15.51h.29V17.3a2.05,2.05,0,0,1-.08.7,1,1,0,0,1-.39.48,1.32,1.32,0,0,1-.68.16,1.46,1.46,0,0,1-.52-.08,1,1,0,0,1-.37-.22,1.46,1.46,0,0,1-.27-.4h.32a.75.75,0,0,0,.33.33,1.06,1.06,0,0,0,.5.11,1.09,1.09,0,0,0,.5-.11.78.78,0,0,0,.29-.28,1.22,1.22,0,0,0,.08-.54v-.12a1,1,0,0,1-.39.32,1.25,1.25,0,0,1-.5.11,1.17,1.17,0,0,1-.58-.15,1.09,1.09,0,0,1-.43-.42,1.2,1.2,0,0,1-.14-.57,1.23,1.23,0,0,1,.15-.59,1.2,1.2,0,0,1,1-.58,1,1,0,0,1,.46.1,1.23,1.23,0,0,1,.42.35Zm-.85.22a.89.89,0,0,0-.45.12.87.87,0,0,0-.33.33.89.89,0,0,0-.12.45.83.83,0,0,0,.25.62.86.86,0,0,0,.64.24.88.88,0,0,0,.64-.24.85.85,0,0,0,.24-.63,1,1,0,0,0-.11-.46.8.8,0,0,0-.32-.31A.83.83,0,0,0,27.61,15.73Z"/>
                    <path id="n" class="cls-1"
                          d="M34,15.51h.29v.4a1.25,1.25,0,0,1,.38-.35,1,1,0,0,1,.46-.11.8.8,0,0,1,.73.47,1.91,1.91,0,0,1,.09.68v1.16h-.28V16.69a2.52,2.52,0,0,0,0-.52.51.51,0,0,0-.56-.45.7.7,0,0,0-.47.17.79.79,0,0,0-.27.43,2.85,2.85,0,0,0,0,.61v.83H34Z"/>
                </g>
                <g id="Group">
                    <path id="g-2" data-name="g" class="cls-1"
                          d="M48.62,15.51h.56v1.93a1.3,1.3,0,0,1-.23.84,1.17,1.17,0,0,1-.93.36,1.49,1.49,0,0,1-.55-.08,1,1,0,0,1-.38-.24,1.09,1.09,0,0,1-.23-.39h.62a.52.52,0,0,0,.21.14,1,1,0,0,0,.31.05.74.74,0,0,0,.36-.07.45.45,0,0,0,.2-.18.93.93,0,0,0,.06-.39,1.08,1.08,0,0,1-.32.22,1.08,1.08,0,0,1-1.13-.27,1.16,1.16,0,0,1-.31-.82,1.18,1.18,0,0,1,.33-.87,1,1,0,0,1,.71-.29.9.9,0,0,1,.37.07,1.22,1.22,0,0,1,.35.24ZM48,16a.6.6,0,0,0-.44.18.64.64,0,0,0-.17.45.62.62,0,0,0,.18.46.59.59,0,0,0,.44.18.55.55,0,0,0,.43-.18.6.6,0,0,0,.17-.46.61.61,0,0,0-.17-.46A.6.6,0,0,0,48,16Z"/>
                    <path id="r-2" data-name="r" class="cls-1"
                          d="M54.24,15.51h.48v.28a.53.53,0,0,1,.21-.25.5.5,0,0,1,.29-.09.49.49,0,0,1,.22.06l-.17.48a.47.47,0,0,0-.16-.05c-.09,0-.16.06-.22.17a1.45,1.45,0,0,0-.09.63v1h-.56Z"/>
                    <path id="o" class="cls-1"
                          d="M61.4,15.45a1.17,1.17,0,0,1,.6.16,1.13,1.13,0,0,1,.59,1,1.15,1.15,0,0,1-.16.6,1,1,0,0,1-.43.43,1.18,1.18,0,0,1-1.37-1.9A1.08,1.08,0,0,1,61.4,15.45Zm0,.53a.54.54,0,0,0-.43.19.62.62,0,0,0-.18.46.69.69,0,0,0,.17.48.63.63,0,0,0,.88,0,.64.64,0,0,0,.17-.48.63.63,0,0,0-.17-.47A.57.57,0,0,0,61.41,16Z"/>
                    <path id="u" class="cls-1"
                          d="M67.68,15.51h.57v1.08a1.5,1.5,0,0,0,0,.44.31.31,0,0,0,.14.19.35.35,0,0,0,.23.07.37.37,0,0,0,.39-.26,1.86,1.86,0,0,0,0-.42v-1.1h.57v1a2.1,2.1,0,0,1-.1.81.84.84,0,0,1-.33.41,1.06,1.06,0,0,1-.56.14,1,1,0,0,1-.6-.17.86.86,0,0,1-.32-.46,3,3,0,0,1-.06-.74Z"/>
                    <path id="p" class="cls-1"
                          d="M75.4,15.51v.25a.9.9,0,0,1,.33-.23,1,1,0,0,1,1.12.25,1.3,1.3,0,0,1,0,1.7,1,1,0,0,1-.75.34.86.86,0,0,1-.36-.07,1.1,1.1,0,0,1-.33-.23v1.07h-.56V15.51ZM76,16a.57.57,0,0,0-.44.18.66.66,0,0,0-.18.48.69.69,0,0,0,.18.49.57.57,0,0,0,.44.18.54.54,0,0,0,.43-.19.65.65,0,0,0,.18-.48.68.68,0,0,0-.17-.47A.58.58,0,0,0,76,16Z"/>
                </g>
            </g>
        </g>
    </g>
</svg>